<svg width="101" height="12" viewBox="0 0 101 12" fill="none" xmlns="http://www.w3.org/2000/svg">
<g filter="url(#filter0_i_630_13820)">
<path d="M1.596 11L2.492 8.48H6.748L7.658 11H9.1L5.39 0.877999H3.864L0.168 11H1.596ZM4.452 3.062C4.522 2.852 4.592 2.614 4.62 2.474C4.648 2.628 4.718 2.866 4.788 3.062L6.342 7.29H2.912L4.452 3.062ZM14.1944 11.154C16.4764 11.154 18.2824 9.81 18.7164 7.794H17.2604C16.8824 9.04 15.7064 9.838 14.2224 9.838C12.1784 9.838 10.8344 8.298 10.8344 5.932C10.8344 3.566 12.1784 2.026 14.2224 2.026C15.6924 2.026 16.8264 2.824 17.2044 4.14H18.6744C18.2964 2.068 16.5464 0.71 14.2644 0.71C11.3664 0.71 9.39236 2.824 9.39236 5.946C9.39236 9.082 11.3104 11.154 14.1944 11.154ZM28.3787 11.672L29.2747 10.86L28.2107 9.656C29.0367 8.732 29.5267 7.444 29.5267 5.932C29.5267 2.852 27.5247 0.695999 24.6547 0.695999C21.7987 0.695999 19.7967 2.866 19.7967 5.932C19.7967 9.012 21.7847 11.168 24.6407 11.168C25.6347 11.168 26.5307 10.902 27.2867 10.44L28.3787 11.672ZM28.0847 5.932C28.0847 7.01 27.7907 7.934 27.2727 8.606L25.9287 7.094L25.0327 7.906L26.3627 9.404C25.8727 9.698 25.2987 9.852 24.6547 9.852C22.5967 9.852 21.2387 8.284 21.2387 5.932C21.2387 3.58 22.5967 2.026 24.6547 2.026C26.7127 2.026 28.0847 3.58 28.0847 5.932ZM31.2115 7.402C31.2115 9.74 32.6955 11.168 35.0895 11.168C37.4695 11.168 38.9535 9.726 38.9535 7.402V0.877999H37.5675V7.318C37.5675 8.928 36.6855 9.838 35.0895 9.838C33.4795 9.838 32.5835 8.942 32.5835 7.318V0.877999H31.2115V7.402ZM42.6066 0.877999H41.2346V11H42.6066V0.877999ZM46.339 11V6.996H48.929L50.819 11H52.345L50.287 6.73C51.547 6.324 52.247 5.316 52.247 3.916C52.247 2.026 50.959 0.877999 48.789 0.877999H44.967V11H46.339ZM46.339 2.11H48.789C50.049 2.11 50.805 2.754 50.805 3.93C50.805 5.092 50.077 5.778 48.803 5.778H46.339V2.11ZM60.3012 11V9.726H55.4992V6.52H59.8252V5.302H55.4992V2.138H60.3012V0.877999H54.1272V11H60.3012ZM71.4654 6.702V5.456H67.4894V2.138H72.2214V0.877999H66.1174V11H67.4894V6.702H71.4654ZM83.011 5.932C83.011 2.852 81.009 0.695999 78.139 0.695999C75.283 0.695999 73.281 2.866 73.281 5.932C73.281 9.012 75.269 11.168 78.125 11.168C80.995 11.168 83.011 9.012 83.011 5.932ZM81.569 5.932C81.569 8.27 80.197 9.852 78.139 9.852C76.081 9.852 74.723 8.284 74.723 5.932C74.723 3.58 76.081 2.026 78.139 2.026C80.197 2.026 81.569 3.58 81.569 5.932ZM86.1378 11V6.996H88.7278L90.6178 11H92.1438L90.0858 6.73C91.3458 6.324 92.0458 5.316 92.0458 3.916C92.0458 2.026 90.7578 0.877999 88.5878 0.877999H84.7658V11H86.1378ZM86.1378 2.11H88.5878C89.8478 2.11 90.6038 2.754 90.6038 3.93C90.6038 5.092 89.8758 5.778 88.6018 5.778H86.1378V2.11ZM92.8093 2.138H95.8613V11H97.2333V2.138H100.271V0.877999H92.8093V2.138Z" fill="url(#paint0_linear_630_13820)"/>
</g>
<defs>
<filter id="filter0_i_630_13820" x="0.167969" y="0.696045" width="100.103" height="11.9761" filterUnits="userSpaceOnUse" color-interpolation-filters="sRGB">
<feFlood flood-opacity="0" result="BackgroundImageFix"/>
<feBlend mode="normal" in="SourceGraphic" in2="BackgroundImageFix" result="shape"/>
<feColorMatrix in="SourceAlpha" type="matrix" values="0 0 0 0 0 0 0 0 0 0 0 0 0 0 0 0 0 0 127 0" result="hardAlpha"/>
<feOffset dy="1"/>
<feGaussianBlur stdDeviation="1"/>
<feComposite in2="hardAlpha" operator="arithmetic" k2="-1" k3="1"/>
<feColorMatrix type="matrix" values="0 0 0 0 1 0 0 0 0 1 0 0 0 0 1 0 0 0 0.4 0"/>
<feBlend mode="normal" in2="shape" result="effect1_innerShadow_630_13820"/>
</filter>
<linearGradient id="paint0_linear_630_13820" x1="-158.136" y1="-8.88889" x2="-127.536" y2="146.243" gradientUnits="userSpaceOnUse">
<stop stop-color="#E30647"/>
<stop offset="1" stop-color="#FFAA0A"/>
</linearGradient>
</defs>
</svg>
