<svg width="85" height="12" viewBox="0 0 85 12" fill="none" xmlns="http://www.w3.org/2000/svg">
<g filter="url(#filter0_i_630_13652)">
<path d="M1.88506 11L2.78106 8.48H7.03706L7.94706 11H9.38906L5.67906 0.877999H4.15306L0.457063 11H1.88506ZM4.74106 3.062C4.81106 2.852 4.88106 2.614 4.90906 2.474C4.93706 2.628 5.00706 2.866 5.07706 3.062L6.63106 7.29H3.20106L4.74106 3.062ZM12.1066 0.877999H10.7346V11H16.5586V9.726H12.1066V0.877999ZM19.421 0.877999H18.049V11H23.873V9.726H19.421V0.877999ZM33.9993 5.932C33.9993 2.852 31.9973 0.695999 29.1273 0.695999C26.2713 0.695999 24.2693 2.866 24.2693 5.932C24.2693 9.012 26.2573 11.168 29.1133 11.168C31.9833 11.168 33.9993 9.012 33.9993 5.932ZM32.5573 5.932C32.5573 8.27 31.1853 9.852 29.1273 9.852C27.0693 9.852 25.7113 8.284 25.7113 5.932C25.7113 3.58 27.0693 2.026 29.1273 2.026C31.1853 2.026 32.5573 3.58 32.5573 5.932ZM39.9541 11.154C42.2361 11.154 44.0421 9.81 44.4761 7.794H43.0201C42.6421 9.04 41.4661 9.838 39.9821 9.838C37.9381 9.838 36.5941 8.298 36.5941 5.932C36.5941 3.566 37.9381 2.026 39.9821 2.026C41.4521 2.026 42.5861 2.824 42.9641 4.14H44.4341C44.0561 2.068 42.3061 0.71 40.0241 0.71C37.1261 0.71 35.1521 2.824 35.1521 5.946C35.1521 9.082 37.0701 11.154 39.9541 11.154ZM46.1956 11L47.0916 8.48H51.3476L52.2576 11H53.6996L49.9896 0.877999H48.4636L44.7676 11H46.1956ZM49.0516 3.062C49.1216 2.852 49.1916 2.614 49.2196 2.474C49.2476 2.628 49.3176 2.866 49.3876 3.062L50.9416 7.29H47.5116L49.0516 3.062ZM53.1491 2.138H56.2011V11H57.5731V2.138H60.6111V0.877999H53.1491V2.138ZM63.3625 0.877999H61.9905V11H63.3625V0.877999ZM74.8509 5.932C74.8509 2.852 72.8489 0.695999 69.9789 0.695999C67.1229 0.695999 65.1209 2.866 65.1209 5.932C65.1209 9.012 67.1089 11.168 69.9649 11.168C72.8349 11.168 74.8509 9.012 74.8509 5.932ZM73.4089 5.932C73.4089 8.27 72.0369 9.852 69.9789 9.852C67.9209 9.852 66.5629 8.284 66.5629 5.932C66.5629 3.58 67.9209 2.026 69.9789 2.026C72.0369 2.026 73.4089 3.58 73.4089 5.932ZM77.9777 11V3.174L83.1577 11H84.5297V0.877999H83.1577V8.704L77.9777 0.877999H76.6057V11H77.9777Z" fill="url(#paint0_linear_630_13652)"/>
</g>
<defs>
<filter id="filter0_i_630_13652" x="0.457031" y="0.696045" width="84.0728" height="11.4719" filterUnits="userSpaceOnUse" color-interpolation-filters="sRGB">
<feFlood flood-opacity="0" result="BackgroundImageFix"/>
<feBlend mode="normal" in="SourceGraphic" in2="BackgroundImageFix" result="shape"/>
<feColorMatrix in="SourceAlpha" type="matrix" values="0 0 0 0 0 0 0 0 0 0 0 0 0 0 0 0 0 0 127 0" result="hardAlpha"/>
<feOffset dy="1"/>
<feGaussianBlur stdDeviation="1"/>
<feComposite in2="hardAlpha" operator="arithmetic" k2="-1" k3="1"/>
<feColorMatrix type="matrix" values="0 0 0 0 1 0 0 0 0 1 0 0 0 0 1 0 0 0 0.4 0"/>
<feBlend mode="normal" in2="shape" result="effect1_innerShadow_630_13652"/>
</filter>
<linearGradient id="paint0_linear_630_13652" x1="-23.1681" y1="-8.88889" x2="53.9788" y2="48.4123" gradientUnits="userSpaceOnUse">
<stop stop-color="#E30647"/>
<stop offset="1" stop-color="#FFAA0A"/>
</linearGradient>
</defs>
</svg>
