<svg width="77" height="12" viewBox="0 0 77 12" fill="none" xmlns="http://www.w3.org/2000/svg">
<g filter="url(#filter0_i_599_5974)">
<path d="M5.524 6.702V5.456H1.548V2.138H6.28V0.877999H0.176V11H1.548V6.702H5.524ZM17.0696 5.932C17.0696 2.852 15.0676 0.695999 12.1976 0.695999C9.34163 0.695999 7.33963 2.866 7.33963 5.932C7.33963 9.012 9.32763 11.168 12.1836 11.168C15.0536 11.168 17.0696 9.012 17.0696 5.932ZM15.6276 5.932C15.6276 8.27 14.2556 9.852 12.1976 9.852C10.1396 9.852 8.78163 8.284 8.78163 5.932C8.78163 3.58 10.1396 2.026 12.1976 2.026C14.2556 2.026 15.6276 3.58 15.6276 5.932ZM20.1964 11V6.996H22.7864L24.6764 11H26.2024L24.1444 6.73C25.4044 6.324 26.1044 5.316 26.1044 3.916C26.1044 2.026 24.8164 0.877999 22.6464 0.877999H18.8244V11H20.1964ZM20.1964 2.11H22.6464C23.9064 2.11 24.6624 2.754 24.6624 3.93C24.6624 5.092 23.9344 5.778 22.6604 5.778H20.1964V2.11ZM26.8679 2.138H29.9199V11H31.2919V2.138H34.3299V0.877999H26.8679V2.138ZM37.0812 0.877999H35.7092V11H37.0812V0.877999ZM38.8536 3.608C38.8536 5.064 39.7076 6.016 41.3596 6.394L43.0256 6.772C43.9916 6.996 44.4256 7.5 44.4256 8.298C44.4256 9.306 43.5716 9.936 42.2276 9.936C40.9536 9.936 40.1416 9.32 40.1136 8.354H38.7136C38.7976 10.09 40.1696 11.168 42.2276 11.168C44.3836 11.168 45.7976 10.006 45.7976 8.186C45.7976 6.758 44.9576 5.862 43.3056 5.484L41.6396 5.092C40.6876 4.868 40.2256 4.378 40.2256 3.566C40.2256 2.572 41.0516 1.928 42.3256 1.928C43.4596 1.928 44.1736 2.516 44.2436 3.524H45.6296C45.5176 1.774 44.2716 0.695999 42.3396 0.695999C40.2536 0.695999 38.8536 1.872 38.8536 3.608ZM51.7698 11L52.6658 8.48H56.9218L57.8318 11H59.2738L55.5638 0.877999H54.0378L50.3418 11H51.7698ZM54.6258 3.062C54.6958 2.852 54.7658 2.614 54.7938 2.474C54.8218 2.628 54.8918 2.866 54.9618 3.062L56.5158 7.29H53.0858L54.6258 3.062ZM64.5534 7.388C66.5274 7.388 67.8154 6.016 67.8154 4.126C67.8154 2.18 66.5414 0.877999 64.5534 0.877999H60.6194V11H61.9914V7.388H64.5534ZM64.3154 2.11C65.6034 2.11 66.3734 2.838 66.3734 4.112C66.3734 5.358 65.6174 6.156 64.2594 6.156H61.9914V2.11H64.3154ZM73.3034 7.388C75.2774 7.388 76.5654 6.016 76.5654 4.126C76.5654 2.18 75.2914 0.877999 73.3034 0.877999H69.3694V11H70.7414V7.388H73.3034ZM73.0654 2.11C74.3534 2.11 75.1234 2.838 75.1234 4.112C75.1234 5.358 74.3674 6.156 73.0094 6.156H70.7414V2.11H73.0654Z" fill="url(#paint0_linear_599_5974)"/>
</g>
<defs>
<filter id="filter0_i_599_5974" x="0.175781" y="0.695801" width="76.3887" height="11.4722" filterUnits="userSpaceOnUse" color-interpolation-filters="sRGB">
<feFlood flood-opacity="0" result="BackgroundImageFix"/>
<feBlend mode="normal" in="SourceGraphic" in2="BackgroundImageFix" result="shape"/>
<feColorMatrix in="SourceAlpha" type="matrix" values="0 0 0 0 0 0 0 0 0 0 0 0 0 0 0 0 0 0 127 0" result="hardAlpha"/>
<feOffset dy="1"/>
<feGaussianBlur stdDeviation="1"/>
<feComposite in2="hardAlpha" operator="arithmetic" k2="-1" k3="1"/>
<feColorMatrix type="matrix" values="0 0 0 0 1 0 0 0 0 1 0 0 0 0 1 0 0 0 0.4 0"/>
<feBlend mode="normal" in2="shape" result="effect1_innerShadow_599_5974"/>
</filter>
<linearGradient id="paint0_linear_599_5974" x1="-22.0129" y1="-8.88889" x2="52.6676" y2="41.4205" gradientUnits="userSpaceOnUse">
<stop stop-color="#E30647"/>
<stop offset="1" stop-color="#FFAA0A"/>
</linearGradient>
</defs>
</svg>
