<svg width="148" height="12" viewBox="0 0 148 12" fill="none" xmlns="http://www.w3.org/2000/svg">
<g filter="url(#filter0_i_537_4764)">
<path d="M5.72561 11.154C8.00761 11.154 9.81361 9.81 10.2476 7.794H8.79161C8.41361 9.04 7.23761 9.838 5.75361 9.838C3.70961 9.838 2.36561 8.298 2.36561 5.932C2.36561 3.566 3.70961 2.026 5.75361 2.026C7.22361 2.026 8.35761 2.824 8.73561 4.14H10.2056C9.82761 2.068 8.07761 0.71 5.79561 0.71C2.89761 0.71 0.923609 2.824 0.923609 5.946C0.923609 9.082 2.84161 11.154 5.72561 11.154ZM21.0579 5.932C21.0579 2.852 19.0559 0.695999 16.1859 0.695999C13.3299 0.695999 11.3279 2.866 11.3279 5.932C11.3279 9.012 13.3159 11.168 16.1719 11.168C19.0419 11.168 21.0579 9.012 21.0579 5.932ZM19.6159 5.932C19.6159 8.27 18.2439 9.852 16.1859 9.852C14.1279 9.852 12.7699 8.284 12.7699 5.932C12.7699 3.58 14.1279 2.026 16.1859 2.026C18.2439 2.026 19.6159 3.58 19.6159 5.932ZM26.3468 7.878H30.6168V6.702H26.3468V7.878ZM41.8463 6.702V5.456H37.8703V2.138H42.6023V0.877999H36.4983V11H37.8703V6.702H41.8463ZM53.3919 5.932C53.3919 2.852 51.3899 0.695999 48.5199 0.695999C45.6639 0.695999 43.6619 2.866 43.6619 5.932C43.6619 9.012 45.6499 11.168 48.5059 11.168C51.3759 11.168 53.3919 9.012 53.3919 5.932ZM51.9499 5.932C51.9499 8.27 50.5779 9.852 48.5199 9.852C46.4619 9.852 45.1039 8.284 45.1039 5.932C45.1039 3.58 46.4619 2.026 48.5199 2.026C50.5779 2.026 51.9499 3.58 51.9499 5.932ZM55.0767 7.402C55.0767 9.74 56.5607 11.168 58.9547 11.168C61.3347 11.168 62.8187 9.726 62.8187 7.402V0.877999H61.4327V7.318C61.4327 8.928 60.5507 9.838 58.9547 9.838C57.3447 9.838 56.4487 8.942 56.4487 7.318V0.877999H55.0767V7.402ZM66.4718 11V3.174L71.6518 11H73.0238V0.877999H71.6518V8.704L66.4718 0.877999H65.0998V11H66.4718ZM78.7271 11C81.7231 11 83.7391 8.956 83.7391 5.946C83.7391 2.922 81.6951 0.877999 78.6711 0.877999H75.3811V11H78.7271ZM78.5731 2.138C80.8831 2.138 82.3111 3.594 82.3111 5.946C82.3111 8.27 80.8831 9.726 78.6291 9.726H76.7531V2.138H78.5731ZM91.6586 11V9.726H86.8566V6.52H91.1826V5.302H86.8566V2.138H91.6586V0.877999H85.4846V11H91.6586ZM95.0187 11V6.996H97.6087L99.4987 11H101.025L98.9667 6.73C100.227 6.324 100.927 5.316 100.927 3.916C100.927 2.026 99.6387 0.877999 97.4687 0.877999H93.6467V11H95.0187ZM95.0187 2.11H97.4687C98.7287 2.11 99.4847 2.754 99.4847 3.93C99.4847 5.092 98.7567 5.778 97.4827 5.778H95.0187V2.11ZM113.211 11H114.751L113.183 9.208C113.673 8.424 113.953 7.416 113.953 6.268H112.679C112.679 7.024 112.553 7.696 112.329 8.242L109.907 5.484C111.209 4.602 111.727 3.818 111.727 2.81C111.727 1.564 110.775 0.71 109.389 0.71C107.961 0.71 106.967 1.62 106.967 2.894C106.967 3.65 107.289 4.266 108.157 5.26C106.477 6.128 105.679 7.122 105.679 8.368C105.679 10.062 107.107 11.182 109.277 11.182C110.551 11.182 111.629 10.79 112.413 10.09L113.211 11ZM108.213 2.88C108.213 2.208 108.661 1.774 109.375 1.774C110.075 1.774 110.495 2.18 110.495 2.838C110.495 3.594 110.089 4.21 109.235 4.728C108.451 3.832 108.213 3.412 108.213 2.88ZM107.051 8.27C107.051 7.36 107.555 6.702 108.815 6.002L111.657 9.222C111.097 9.768 110.341 10.048 109.403 10.048C107.933 10.048 107.051 9.376 107.051 8.27ZM123.577 11.154C125.859 11.154 127.665 9.81 128.099 7.794H126.643C126.265 9.04 125.089 9.838 123.605 9.838C121.561 9.838 120.217 8.298 120.217 5.932C120.217 3.566 121.561 2.026 123.605 2.026C125.075 2.026 126.209 2.824 126.587 4.14H128.057C127.679 2.068 125.929 0.71 123.647 0.71C120.749 0.71 118.775 2.824 118.775 5.946C118.775 9.082 120.693 11.154 123.577 11.154ZM135.955 11V9.726H131.153V6.52H135.479V5.302H131.153V2.138H135.955V0.877999H129.781V11H135.955ZM147.072 5.932C147.072 2.852 145.07 0.695999 142.2 0.695999C139.344 0.695999 137.342 2.866 137.342 5.932C137.342 9.012 139.33 11.168 142.186 11.168C145.056 11.168 147.072 9.012 147.072 5.932ZM145.63 5.932C145.63 8.27 144.258 9.852 142.2 9.852C140.142 9.852 138.784 8.284 138.784 5.932C138.784 3.58 140.142 2.026 142.2 2.026C144.258 2.026 145.63 3.58 145.63 5.932Z" fill="url(#paint0_linear_537_4764)"/>
</g>
<defs>
<filter id="filter0_i_537_4764" x="0.923828" y="0.696045" width="146.147" height="11.4858" filterUnits="userSpaceOnUse" color-interpolation-filters="sRGB">
<feFlood flood-opacity="0" result="BackgroundImageFix"/>
<feBlend mode="normal" in="SourceGraphic" in2="BackgroundImageFix" result="shape"/>
<feColorMatrix in="SourceAlpha" type="matrix" values="0 0 0 0 0 0 0 0 0 0 0 0 0 0 0 0 0 0 127 0" result="hardAlpha"/>
<feOffset dy="1"/>
<feGaussianBlur stdDeviation="1"/>
<feComposite in2="hardAlpha" operator="arithmetic" k2="-1" k3="1"/>
<feColorMatrix type="matrix" values="0 0 0 0 1 0 0 0 0 1 0 0 0 0 1 0 0 0 0.4 0"/>
<feBlend mode="normal" in2="shape" result="effect1_innerShadow_537_4764"/>
</filter>
<linearGradient id="paint0_linear_537_4764" x1="-39.8707" y1="-8.88889" x2="38.3445" y2="91.088" gradientUnits="userSpaceOnUse">
<stop stop-color="#E30647"/>
<stop offset="1" stop-color="#FFAA0A"/>
</linearGradient>
</defs>
</svg>
