<svg width="29" height="12" viewBox="0 0 29 12" fill="none" xmlns="http://www.w3.org/2000/svg">
<g filter="url(#filter0_i_537_4771)">
<path d="M5.77346 11.154C8.05546 11.154 9.86146 9.81 10.2955 7.794H8.83946C8.46146 9.04 7.28546 9.838 5.80146 9.838C3.75746 9.838 2.41346 8.298 2.41346 5.932C2.41346 3.566 3.75746 2.026 5.80146 2.026C7.27146 2.026 8.40546 2.824 8.78346 4.14H10.2535C9.87546 2.068 8.12546 0.71 5.84346 0.71C2.94546 0.71 0.971461 2.824 0.971461 5.946C0.971461 9.082 2.88946 11.154 5.77346 11.154ZM10.4372 2.138H13.4892V11H14.8612V2.138H17.8992V0.877999H10.4372V2.138ZM28.0237 5.932C28.0237 2.852 26.0217 0.695999 23.1517 0.695999C20.2957 0.695999 18.2937 2.866 18.2937 5.932C18.2937 9.012 20.2817 11.168 23.1377 11.168C26.0077 11.168 28.0237 9.012 28.0237 5.932ZM26.5817 5.932C26.5817 8.27 25.2097 9.852 23.1517 9.852C21.0937 9.852 19.7357 8.284 19.7357 5.932C19.7357 3.58 21.0937 2.026 23.1517 2.026C25.2097 2.026 26.5817 3.58 26.5817 5.932Z" fill="url(#paint0_linear_537_4771)"/>
</g>
<defs>
<filter id="filter0_i_537_4771" x="0.970703" y="0.696045" width="27.0527" height="11.4719" filterUnits="userSpaceOnUse" color-interpolation-filters="sRGB">
<feFlood flood-opacity="0" result="BackgroundImageFix"/>
<feBlend mode="normal" in="SourceGraphic" in2="BackgroundImageFix" result="shape"/>
<feColorMatrix in="SourceAlpha" type="matrix" values="0 0 0 0 0 0 0 0 0 0 0 0 0 0 0 0 0 0 127 0" result="hardAlpha"/>
<feOffset dy="1"/>
<feGaussianBlur stdDeviation="1"/>
<feComposite in2="hardAlpha" operator="arithmetic" k2="-1" k3="1"/>
<feColorMatrix type="matrix" values="0 0 0 0 1 0 0 0 0 1 0 0 0 0 1 0 0 0 0.4 0"/>
<feBlend mode="normal" in2="shape" result="effect1_innerShadow_537_4771"/>
</filter>
<linearGradient id="paint0_linear_537_4771" x1="-7.8125" y1="-8.88889" x2="30.1712" y2="0.62466" gradientUnits="userSpaceOnUse">
<stop stop-color="#E30647"/>
<stop offset="1" stop-color="#FFAA0A"/>
</linearGradient>
</defs>
</svg>
