<svg width="80" height="12" viewBox="0 0 80 12" fill="none" xmlns="http://www.w3.org/2000/svg">
<g filter="url(#filter0_i_599_6095)">
<path d="M3.99 11H5.418L9.226 0.877999H7.798L5.348 7.332C5.18 7.78 4.942 8.452 4.704 9.25C4.494 8.494 4.298 7.92 4.074 7.346L1.61 0.877999H0.14L3.99 11ZM11.9132 0.877999H10.5412V11H11.9132V0.877999ZM20.4477 11V9.726H15.6457V6.52H19.9717V5.302H15.6457V2.138H20.4477V0.877999H14.2737V11H20.4477ZM24.4798 11H25.8238L28.3018 2.992L30.7518 11H32.0678L35.1198 0.877999H33.7198L31.8578 7.08C31.7178 7.528 31.5778 8.046 31.4098 8.9C31.2558 8.144 31.1158 7.612 30.9478 7.066L29.0438 0.877999H27.5598L25.6418 7.066C25.4878 7.598 25.3338 8.088 25.1658 8.9C25.0258 8.13 24.8858 7.598 24.7458 7.066L22.8978 0.877999H21.4698L24.4798 11ZM43.6783 11C46.6743 11 48.6903 8.956 48.6903 5.946C48.6903 2.922 46.6463 0.877999 43.6223 0.877999H40.3323V11H43.6783ZM43.5243 2.138C45.8343 2.138 47.2623 3.594 47.2623 5.946C47.2623 8.27 45.8343 9.726 43.5803 9.726H41.7043V2.138H43.5243ZM56.6098 11V9.726H51.8078V6.52H56.1338V5.302H51.8078V2.138H56.6098V0.877999H50.4358V11H56.6098ZM59.9419 11V6.674C59.9419 5.26 59.9139 4.224 59.8439 3.734L62.7839 11H64.0719L67.0259 3.706C66.9559 4.42 66.9419 5.106 66.9419 6.996V11H68.2859V0.877999H66.9139L63.4279 9.39L59.9419 0.877999H58.5979V11H59.9419ZM79.7708 5.932C79.7708 2.852 77.7688 0.695999 74.8988 0.695999C72.0428 0.695999 70.0408 2.866 70.0408 5.932C70.0408 9.012 72.0288 11.168 74.8848 11.168C77.7548 11.168 79.7708 9.012 79.7708 5.932ZM78.3288 5.932C78.3288 8.27 76.9568 9.852 74.8988 9.852C72.8408 9.852 71.4828 8.284 71.4828 5.932C71.4828 3.58 72.8408 2.026 74.8988 2.026C76.9568 2.026 78.3288 3.58 78.3288 5.932Z" fill="url(#paint0_linear_599_6095)"/>
</g>
<defs>
<filter id="filter0_i_599_6095" x="0.140625" y="0.695801" width="79.6309" height="11.4722" filterUnits="userSpaceOnUse" color-interpolation-filters="sRGB">
<feFlood flood-opacity="0" result="BackgroundImageFix"/>
<feBlend mode="normal" in="SourceGraphic" in2="BackgroundImageFix" result="shape"/>
<feColorMatrix in="SourceAlpha" type="matrix" values="0 0 0 0 0 0 0 0 0 0 0 0 0 0 0 0 0 0 127 0" result="hardAlpha"/>
<feOffset dy="1"/>
<feGaussianBlur stdDeviation="1"/>
<feComposite in2="hardAlpha" operator="arithmetic" k2="-1" k3="1"/>
<feColorMatrix type="matrix" values="0 0 0 0 1 0 0 0 0 1 0 0 0 0 1 0 0 0 0.4 0"/>
<feBlend mode="normal" in2="shape" result="effect1_innerShadow_599_6095"/>
</filter>
<linearGradient id="paint0_linear_599_6095" x1="-21.8211" y1="-8.88889" x2="53.8791" y2="44.0688" gradientUnits="userSpaceOnUse">
<stop stop-color="#E30647"/>
<stop offset="1" stop-color="#FFAA0A"/>
</linearGradient>
</defs>
</svg>
