<svg width="131" height="12" viewBox="0 0 131 12" fill="none" xmlns="http://www.w3.org/2000/svg">
<g filter="url(#filter0_i_537_4646)">
<path d="M5.524 6.702V5.456H1.548V2.138H6.28V0.877999H0.176V11H1.548V6.702H5.524ZM17.0696 5.932C17.0696 2.852 15.0676 0.695999 12.1976 0.695999C9.34163 0.695999 7.33963 2.866 7.33963 5.932C7.33963 9.012 9.32763 11.168 12.1836 11.168C15.0536 11.168 17.0696 9.012 17.0696 5.932ZM15.6276 5.932C15.6276 8.27 14.2556 9.852 12.1976 9.852C10.1396 9.852 8.78163 8.284 8.78163 5.932C8.78163 3.58 10.1396 2.026 12.1976 2.026C14.2556 2.026 15.6276 3.58 15.6276 5.932ZM20.1964 11V6.996H22.7864L24.6764 11H26.2024L24.1444 6.73C25.4044 6.324 26.1044 5.316 26.1044 3.916C26.1044 2.026 24.8164 0.877999 22.6464 0.877999H18.8244V11H20.1964ZM20.1964 2.11H22.6464C23.9064 2.11 24.6624 2.754 24.6624 3.93C24.6624 5.092 23.9344 5.778 22.6604 5.778H20.1964V2.11ZM26.8679 2.138H29.9199V11H31.2919V2.138H34.3299V0.877999H26.8679V2.138ZM37.0812 0.877999H35.7092V11H37.0812V0.877999ZM38.8536 3.608C38.8536 5.064 39.7076 6.016 41.3596 6.394L43.0256 6.772C43.9916 6.996 44.4256 7.5 44.4256 8.298C44.4256 9.306 43.5716 9.936 42.2276 9.936C40.9536 9.936 40.1416 9.32 40.1136 8.354H38.7136C38.7976 10.09 40.1696 11.168 42.2276 11.168C44.3836 11.168 45.7976 10.006 45.7976 8.186C45.7976 6.758 44.9576 5.862 43.3056 5.484L41.6396 5.092C40.6876 4.868 40.2256 4.378 40.2256 3.566C40.2256 2.572 41.0516 1.928 42.3256 1.928C43.4596 1.928 44.1736 2.516 44.2436 3.524H45.6296C45.5176 1.774 44.2716 0.695999 42.3396 0.695999C40.2536 0.695999 38.8536 1.872 38.8536 3.608ZM57.5238 11V9.726H52.7218V6.52H57.0478V5.302H52.7218V2.138H57.5238V0.877999H51.3498V11H57.5238ZM63.7119 11.154C65.9939 11.154 67.7999 9.81 68.2339 7.794H66.7779C66.3999 9.04 65.2239 9.838 63.7399 9.838C61.6959 9.838 60.3519 8.298 60.3519 5.932C60.3519 3.566 61.6959 2.026 63.7399 2.026C65.2099 2.026 66.3439 2.824 66.7219 4.14H68.1919C67.8139 2.068 66.0639 0.71 63.7819 0.71C60.8839 0.71 58.9099 2.824 58.9099 5.946C58.9099 9.082 60.8279 11.154 63.7119 11.154ZM79.0442 5.932C79.0442 2.852 77.0422 0.695999 74.1722 0.695999C71.3162 0.695999 69.3142 2.866 69.3142 5.932C69.3142 9.012 71.3022 11.168 74.1582 11.168C77.0282 11.168 79.0442 9.012 79.0442 5.932ZM77.6022 5.932C77.6022 8.27 76.2302 9.852 74.1722 9.852C72.1142 9.852 70.7562 8.284 70.7562 5.932C70.7562 3.58 72.1142 2.026 74.1722 2.026C76.2302 2.026 77.6022 3.58 77.6022 5.932ZM80.211 3.608C80.211 5.064 81.065 6.016 82.717 6.394L84.383 6.772C85.349 6.996 85.783 7.5 85.783 8.298C85.783 9.306 84.929 9.936 83.585 9.936C82.311 9.936 81.499 9.32 81.471 8.354H80.071C80.155 10.09 81.527 11.168 83.585 11.168C85.741 11.168 87.155 10.006 87.155 8.186C87.155 6.758 86.315 5.862 84.663 5.484L82.997 5.092C82.045 4.868 81.583 4.378 81.583 3.566C81.583 2.572 82.409 1.928 83.683 1.928C84.817 1.928 85.531 2.516 85.601 3.524H86.987C86.875 1.774 85.629 0.695999 83.697 0.695999C81.611 0.695999 80.211 1.872 80.211 3.608ZM90.9997 6.884V11H92.3717V6.884L95.7737 0.877999H94.2757L92.0357 4.924C91.8537 5.26 91.8257 5.344 91.6997 5.596C91.5877 5.358 91.5037 5.162 91.3637 4.924L89.1097 0.877999H87.5697L90.9997 6.884ZM96.3439 3.608C96.3439 5.064 97.1979 6.016 98.8499 6.394L100.516 6.772C101.482 6.996 101.916 7.5 101.916 8.298C101.916 9.306 101.062 9.936 99.7179 9.936C98.4439 9.936 97.6319 9.32 97.6039 8.354H96.2039C96.2879 10.09 97.6599 11.168 99.7179 11.168C101.874 11.168 103.288 10.006 103.288 8.186C103.288 6.758 102.448 5.862 100.796 5.484L99.1299 5.092C98.1779 4.868 97.7159 4.378 97.7159 3.566C97.7159 2.572 98.5419 1.928 99.8159 1.928C100.95 1.928 101.664 2.516 101.734 3.524H103.12C103.008 1.774 101.762 0.695999 99.8299 0.695999C97.7439 0.695999 96.3439 1.872 96.3439 3.608ZM103.895 2.138H106.947V11H108.319V2.138H111.357V0.877999H103.895V2.138ZM118.911 11V9.726H114.109V6.52H118.435V5.302H114.109V2.138H118.911V0.877999H112.737V11H118.911ZM122.243 11V6.674C122.243 5.26 122.215 4.224 122.145 3.734L125.085 11H126.373L129.327 3.706C129.257 4.42 129.243 5.106 129.243 6.996V11H130.587V0.877999H129.215L125.729 9.39L122.243 0.877999H120.899V11H122.243Z" fill="url(#paint0_linear_537_4646)"/>
</g>
<defs>
<filter id="filter0_i_537_4646" x="0.175781" y="0.695999" width="130.41" height="11.472" filterUnits="userSpaceOnUse" color-interpolation-filters="sRGB">
<feFlood flood-opacity="0" result="BackgroundImageFix"/>
<feBlend mode="normal" in="SourceGraphic" in2="BackgroundImageFix" result="shape"/>
<feColorMatrix in="SourceAlpha" type="matrix" values="0 0 0 0 0 0 0 0 0 0 0 0 0 0 0 0 0 0 127 0" result="hardAlpha"/>
<feOffset dy="1"/>
<feGaussianBlur stdDeviation="1"/>
<feComposite in2="hardAlpha" operator="arithmetic" k2="-1" k3="1"/>
<feColorMatrix type="matrix" values="0 0 0 0 1 0 0 0 0 1 0 0 0 0 1 0 0 0 0.4 0"/>
<feBlend mode="normal" in2="shape" result="effect1_innerShadow_537_4646"/>
</filter>
<linearGradient id="paint0_linear_537_4646" x1="-36.8297" y1="-8.88889" x2="42.9858" y2="82.7936" gradientUnits="userSpaceOnUse">
<stop stop-color="#E30647"/>
<stop offset="1" stop-color="#FFAA0A"/>
</linearGradient>
</defs>
</svg>
