<svg width="116" height="12" viewBox="0 0 116 12" fill="none" xmlns="http://www.w3.org/2000/svg">
<g filter="url(#filter0_i_537_4684)">
<path d="M5.524 6.702V5.456H1.548V2.138H6.28V0.877999H0.176V11H1.548V6.702H5.524ZM17.0696 5.932C17.0696 2.852 15.0676 0.695999 12.1976 0.695999C9.34163 0.695999 7.33963 2.866 7.33963 5.932C7.33963 9.012 9.32763 11.168 12.1836 11.168C15.0536 11.168 17.0696 9.012 17.0696 5.932ZM15.6276 5.932C15.6276 8.27 14.2556 9.852 12.1976 9.852C10.1396 9.852 8.78163 8.284 8.78163 5.932C8.78163 3.58 10.1396 2.026 12.1976 2.026C14.2556 2.026 15.6276 3.58 15.6276 5.932ZM20.1964 11V6.996H22.7864L24.6764 11H26.2024L24.1444 6.73C25.4044 6.324 26.1044 5.316 26.1044 3.916C26.1044 2.026 24.8164 0.877999 22.6464 0.877999H18.8244V11H20.1964ZM20.1964 2.11H22.6464C23.9064 2.11 24.6624 2.754 24.6624 3.93C24.6624 5.092 23.9344 5.778 22.6604 5.778H20.1964V2.11ZM26.8679 2.138H29.9199V11H31.2919V2.138H34.3299V0.877999H26.8679V2.138ZM37.0812 0.877999H35.7092V11H37.0812V0.877999ZM38.8536 3.608C38.8536 5.064 39.7076 6.016 41.3596 6.394L43.0256 6.772C43.9916 6.996 44.4256 7.5 44.4256 8.298C44.4256 9.306 43.5716 9.936 42.2276 9.936C40.9536 9.936 40.1416 9.32 40.1136 8.354H38.7136C38.7976 10.09 40.1696 11.168 42.2276 11.168C44.3836 11.168 45.7976 10.006 45.7976 8.186C45.7976 6.758 44.9576 5.862 43.3056 5.484L41.6396 5.092C40.6876 4.868 40.2256 4.378 40.2256 3.566C40.2256 2.572 41.0516 1.928 42.3256 1.928C43.4596 1.928 44.1736 2.516 44.2436 3.524H45.6296C45.5176 1.774 44.2716 0.695999 42.3396 0.695999C40.2536 0.695999 38.8536 1.872 38.8536 3.608ZM56.6978 6.702V5.456H52.7218V2.138H57.4538V0.877999H51.3498V11H52.7218V6.702H56.6978ZM68.2435 5.932C68.2435 2.852 66.2415 0.695999 63.3715 0.695999C60.5155 0.695999 58.5135 2.866 58.5135 5.932C58.5135 9.012 60.5015 11.168 63.3575 11.168C66.2275 11.168 68.2435 9.012 68.2435 5.932ZM66.8015 5.932C66.8015 8.27 65.4295 9.852 63.3715 9.852C61.3135 9.852 59.9555 8.284 59.9555 5.932C59.9555 3.58 61.3135 2.026 63.3715 2.026C65.4295 2.026 66.8015 3.58 66.8015 5.932ZM69.9283 7.402C69.9283 9.74 71.4123 11.168 73.8063 11.168C76.1863 11.168 77.6703 9.726 77.6703 7.402V0.877999H76.2843V7.318C76.2843 8.928 75.4023 9.838 73.8063 9.838C72.1963 9.838 71.3003 8.942 71.3003 7.318V0.877999H69.9283V7.402ZM81.3234 11V3.174L86.5034 11H87.8754V0.877999H86.5034V8.704L81.3234 0.877999H79.9514V11H81.3234ZM93.5786 11C96.5746 11 98.5906 8.956 98.5906 5.946C98.5906 2.922 96.5466 0.877999 93.5226 0.877999H90.2326V11H93.5786ZM93.4246 2.138C95.7346 2.138 97.1626 3.594 97.1626 5.946C97.1626 8.27 95.7346 9.726 93.4806 9.726H91.6046V2.138H93.4246ZM106.51 11V9.726H101.708V6.52H106.034V5.302H101.708V2.138H106.51V0.877999H100.336V11H106.51ZM109.87 11V6.996H112.46L114.35 11H115.876L113.818 6.73C115.078 6.324 115.778 5.316 115.778 3.916C115.778 2.026 114.49 0.877999 112.32 0.877999H108.498V11H109.87ZM109.87 2.11H112.32C113.58 2.11 114.336 2.754 114.336 3.93C114.336 5.092 113.608 5.778 112.334 5.778H109.87V2.11Z" fill="url(#paint0_linear_537_4684)"/>
</g>
<defs>
<filter id="filter0_i_537_4684" x="0.175781" y="0.696045" width="115.7" height="11.4719" filterUnits="userSpaceOnUse" color-interpolation-filters="sRGB">
<feFlood flood-opacity="0" result="BackgroundImageFix"/>
<feBlend mode="normal" in="SourceGraphic" in2="BackgroundImageFix" result="shape"/>
<feColorMatrix in="SourceAlpha" type="matrix" values="0 0 0 0 0 0 0 0 0 0 0 0 0 0 0 0 0 0 127 0" result="hardAlpha"/>
<feOffset dy="1"/>
<feGaussianBlur stdDeviation="1"/>
<feComposite in2="hardAlpha" operator="arithmetic" k2="-1" k3="1"/>
<feColorMatrix type="matrix" values="0 0 0 0 1 0 0 0 0 1 0 0 0 0 1 0 0 0 0.4 0"/>
<feBlend mode="normal" in2="shape" result="effect1_innerShadow_537_4684"/>
</filter>
<linearGradient id="paint0_linear_537_4684" x1="-32.7888" y1="-8.88889" x2="47.7803" y2="73.2214" gradientUnits="userSpaceOnUse">
<stop stop-color="#E30647"/>
<stop offset="1" stop-color="#FFAA0A"/>
</linearGradient>
</defs>
</svg>
