<svg width="115" height="12" viewBox="0 0 115 12" fill="none" xmlns="http://www.w3.org/2000/svg">
<g filter="url(#filter0_i_599_6116)">
<path d="M5.524 6.702V5.456H1.548V2.138H6.28V0.877999H0.176V11H1.548V6.702H5.524ZM17.0696 5.932C17.0696 2.852 15.0676 0.695999 12.1976 0.695999C9.34163 0.695999 7.33963 2.866 7.33963 5.932C7.33963 9.012 9.32763 11.168 12.1836 11.168C15.0536 11.168 17.0696 9.012 17.0696 5.932ZM15.6276 5.932C15.6276 8.27 14.2556 9.852 12.1976 9.852C10.1396 9.852 8.78163 8.284 8.78163 5.932C8.78163 3.58 10.1396 2.026 12.1976 2.026C14.2556 2.026 15.6276 3.58 15.6276 5.932ZM20.1964 11V6.996H22.7864L24.6764 11H26.2024L24.1444 6.73C25.4044 6.324 26.1044 5.316 26.1044 3.916C26.1044 2.026 24.8164 0.877999 22.6464 0.877999H18.8244V11H20.1964ZM20.1964 2.11H22.6464C23.9064 2.11 24.6624 2.754 24.6624 3.93C24.6624 5.092 23.9344 5.778 22.6604 5.778H20.1964V2.11ZM26.8679 2.138H29.9199V11H31.2919V2.138H34.3299V0.877999H26.8679V2.138ZM37.0812 0.877999H35.7092V11H37.0812V0.877999ZM38.8536 3.608C38.8536 5.064 39.7076 6.016 41.3596 6.394L43.0256 6.772C43.9916 6.996 44.4256 7.5 44.4256 8.298C44.4256 9.306 43.5716 9.936 42.2276 9.936C40.9536 9.936 40.1416 9.32 40.1136 8.354H38.7136C38.7976 10.09 40.1696 11.168 42.2276 11.168C44.3836 11.168 45.7976 10.006 45.7976 8.186C45.7976 6.758 44.9576 5.862 43.3056 5.484L41.6396 5.092C40.6876 4.868 40.2256 4.378 40.2256 3.566C40.2256 2.572 41.0516 1.928 42.3256 1.928C43.4596 1.928 44.1736 2.516 44.2436 3.524H45.6296C45.5176 1.774 44.2716 0.695999 42.3396 0.695999C40.2536 0.695999 38.8536 1.872 38.8536 3.608ZM55.6898 1.998C57.0338 1.998 58.1538 2.642 58.5318 3.93H59.9878C59.6518 1.984 57.9298 0.71 55.7178 0.71C52.7358 0.71 50.7478 2.894 50.7478 5.974C50.7478 9.096 52.7218 11.168 55.5918 11.168C57.0758 11.168 58.3078 10.524 58.8538 9.642L58.9518 11.014H60.0998V5.428H55.4238V6.646H58.8118V6.94C58.8118 8.984 57.4258 9.866 55.7038 9.866C53.6178 9.866 52.1898 8.452 52.1898 6.002C52.1898 3.608 53.5058 1.998 55.6898 1.998ZM62.4749 11L63.3709 8.48H67.6269L68.5369 11H69.9789L66.2689 0.877999H64.7429L61.0469 11H62.4749ZM65.3309 3.062C65.4009 2.852 65.4709 2.614 65.4989 2.474C65.5269 2.628 65.5969 2.866 65.6669 3.062L67.2209 7.29H63.7909L65.3309 3.062ZM69.4284 2.138H72.4804V11H73.8524V2.138H76.8904V0.877999H69.4284V2.138ZM84.4438 11V9.726H79.6418V6.52H83.9678V5.302H79.6418V2.138H84.4438V0.877999H78.2698V11H84.4438ZM88.4759 11H89.8199L92.2979 2.992L94.7479 11H96.0639L99.1159 0.877999H97.7159L95.8539 7.08C95.7139 7.528 95.5739 8.046 95.4059 8.9C95.2519 8.144 95.1119 7.612 94.9439 7.066L93.0399 0.877999H91.5559L89.6379 7.066C89.4839 7.598 89.3299 8.088 89.1619 8.9C89.0219 8.13 88.8819 7.598 88.7419 7.066L86.8939 0.877999H85.4659L88.4759 11ZM99.8812 11L100.777 8.48H105.033L105.943 11H107.385L103.675 0.877999H102.149L98.4532 11H99.8812ZM102.737 3.062C102.807 2.852 102.877 2.614 102.905 2.474C102.933 2.628 103.003 2.866 103.073 3.062L104.627 7.29H101.197L102.737 3.062ZM110.113 6.884V11H111.485V6.884L114.887 0.877999H113.389L111.149 4.924C110.967 5.26 110.939 5.344 110.813 5.596C110.701 5.358 110.617 5.162 110.477 4.924L108.223 0.877999H106.683L110.113 6.884Z" fill="url(#paint0_linear_599_6116)"/>
</g>
<defs>
<filter id="filter0_i_599_6116" x="0.175781" y="0.695801" width="114.711" height="11.4722" filterUnits="userSpaceOnUse" color-interpolation-filters="sRGB">
<feFlood flood-opacity="0" result="BackgroundImageFix"/>
<feBlend mode="normal" in="SourceGraphic" in2="BackgroundImageFix" result="shape"/>
<feColorMatrix in="SourceAlpha" type="matrix" values="0 0 0 0 0 0 0 0 0 0 0 0 0 0 0 0 0 0 127 0" result="hardAlpha"/>
<feOffset dy="1"/>
<feGaussianBlur stdDeviation="1"/>
<feComposite in2="hardAlpha" operator="arithmetic" k2="-1" k3="1"/>
<feColorMatrix type="matrix" values="0 0 0 0 1 0 0 0 0 1 0 0 0 0 1 0 0 0 0.4 0"/>
<feBlend mode="normal" in2="shape" result="effect1_innerShadow_599_6116"/>
</filter>
<linearGradient id="paint0_linear_599_6116" x1="-32.5194" y1="-8.88889" x2="48.0598" y2="72.5357" gradientUnits="userSpaceOnUse">
<stop stop-color="#E30647"/>
<stop offset="1" stop-color="#FFAA0A"/>
</linearGradient>
</defs>
</svg>
