<svg width="84" height="12" viewBox="0 0 84 12" fill="none" xmlns="http://www.w3.org/2000/svg">
<g filter="url(#filter0_i_630_12846)">
<path d="M5.524 6.702V5.456H1.548V2.138H6.28V0.877999H0.176V11H1.548V6.702H5.524ZM17.0696 5.932C17.0696 2.852 15.0676 0.695999 12.1976 0.695999C9.34163 0.695999 7.33963 2.866 7.33963 5.932C7.33963 9.012 9.32763 11.168 12.1836 11.168C15.0536 11.168 17.0696 9.012 17.0696 5.932ZM15.6276 5.932C15.6276 8.27 14.2556 9.852 12.1976 9.852C10.1396 9.852 8.78163 8.284 8.78163 5.932C8.78163 3.58 10.1396 2.026 12.1976 2.026C14.2556 2.026 15.6276 3.58 15.6276 5.932ZM20.1964 11V6.996H22.7864L24.6764 11H26.2024L24.1444 6.73C25.4044 6.324 26.1044 5.316 26.1044 3.916C26.1044 2.026 24.8164 0.877999 22.6464 0.877999H18.8244V11H20.1964ZM20.1964 2.11H22.6464C23.9064 2.11 24.6624 2.754 24.6624 3.93C24.6624 5.092 23.9344 5.778 22.6604 5.778H20.1964V2.11ZM26.8679 2.138H29.9199V11H31.2919V2.138H34.3299V0.877999H26.8679V2.138ZM37.0812 0.877999H35.7092V11H37.0812V0.877999ZM38.8536 3.608C38.8536 5.064 39.7076 6.016 41.3596 6.394L43.0256 6.772C43.9916 6.996 44.4256 7.5 44.4256 8.298C44.4256 9.306 43.5716 9.936 42.2276 9.936C40.9536 9.936 40.1416 9.32 40.1136 8.354H38.7136C38.7976 10.09 40.1696 11.168 42.2276 11.168C44.3836 11.168 45.7976 10.006 45.7976 8.186C45.7976 6.758 44.9576 5.862 43.3056 5.484L41.6396 5.092C40.6876 4.868 40.2256 4.378 40.2256 3.566C40.2256 2.572 41.0516 1.928 42.3256 1.928C43.4596 1.928 44.1736 2.516 44.2436 3.524H45.6296C45.5176 1.774 44.2716 0.695999 42.3396 0.695999C40.2536 0.695999 38.8536 1.872 38.8536 3.608ZM52.7218 0.877999H51.3498V11H57.1738V9.726H52.7218V0.877999ZM59.3577 11L60.2537 8.48H64.5097L65.4197 11H66.8617L63.1517 0.877999H61.6257L57.9297 11H59.3577ZM62.2137 3.062C62.2837 2.852 62.3537 2.614 62.3817 2.474C62.4097 2.628 62.4797 2.866 62.5497 3.062L64.1037 7.29H60.6737L62.2137 3.062ZM68.2073 11H72.2113C74.2133 11 75.4313 9.978 75.4313 8.298C75.4313 7.094 74.8573 6.282 73.7373 5.918C74.7452 5.498 75.2493 4.714 75.2493 3.552C75.2493 1.886 74.0453 0.877999 72.0713 0.877999H68.2073V11ZM71.9873 2.096C73.1773 2.096 73.8493 2.67 73.8493 3.678C73.8493 4.728 73.2053 5.344 72.0713 5.344H69.5793V2.096H71.9873ZM72.1833 6.534C73.3453 6.534 74.0173 7.122 74.0173 8.13C74.0173 9.18 73.3593 9.782 72.1833 9.782H69.5793V6.534H72.1833ZM76.5607 3.608C76.5607 5.064 77.4147 6.016 79.0667 6.394L80.7327 6.772C81.6987 6.996 82.1327 7.5 82.1327 8.298C82.1327 9.306 81.2787 9.936 79.9347 9.936C78.6607 9.936 77.8487 9.32 77.8207 8.354H76.4207C76.5047 10.09 77.8767 11.168 79.9347 11.168C82.0907 11.168 83.5047 10.006 83.5047 8.186C83.5047 6.758 82.6647 5.862 81.0127 5.484L79.3467 5.092C78.3947 4.868 77.9327 4.378 77.9327 3.566C77.9327 2.572 78.7587 1.928 80.0327 1.928C81.1667 1.928 81.8807 2.516 81.9507 3.524H83.3367C83.2247 1.774 81.9787 0.695999 80.0467 0.695999C77.9607 0.695999 76.5607 1.872 76.5607 3.608Z" fill="url(#paint0_linear_630_12846)"/>
</g>
<defs>
<filter id="filter0_i_630_12846" x="0.175995" y="0.695984" width="83.3286" height="11.472" filterUnits="userSpaceOnUse" color-interpolation-filters="sRGB">
<feFlood flood-opacity="0" result="BackgroundImageFix"/>
<feBlend mode="normal" in="SourceGraphic" in2="BackgroundImageFix" result="shape"/>
<feColorMatrix in="SourceAlpha" type="matrix" values="0 0 0 0 0 0 0 0 0 0 0 0 0 0 0 0 0 0 127 0" result="hardAlpha"/>
<feOffset dy="1"/>
<feGaussianBlur stdDeviation="1"/>
<feComposite in2="hardAlpha" operator="arithmetic" k2="-1" k3="1"/>
<feColorMatrix type="matrix" values="0 0 0 0 1 0 0 0 0 1 0 0 0 0 1 0 0 0 0.4 0"/>
<feBlend mode="normal" in2="shape" result="effect1_innerShadow_630_12846"/>
</filter>
<linearGradient id="paint0_linear_630_12846" x1="-24.1681" y1="-8.88889" x2="52.9788" y2="48.4123" gradientUnits="userSpaceOnUse">
<stop stop-color="#E30647"/>
<stop offset="1" stop-color="#FFAA0A"/>
</linearGradient>
</defs>
</svg>
