<svg width="87" height="12" viewBox="0 0 87 12" fill="none" xmlns="http://www.w3.org/2000/svg">
<g filter="url(#filter0_i_537_4788)">
<path d="M1.91519 0.877999H0.543188V11H6.36719V9.726H1.91519V0.877999ZM14.0316 11V9.726H9.22964V6.52H13.5556V5.302H9.22964V2.138H14.0316V0.877999H7.85764V11H14.0316ZM16.4398 11L17.3358 8.48H21.5918L22.5018 11H23.9438L20.2338 0.877999H18.7078L15.0118 11H16.4398ZM19.2958 3.062C19.3658 2.852 19.4358 2.614 19.4638 2.474C19.4918 2.628 19.5618 2.866 19.6318 3.062L21.1858 7.29H17.7558L19.2958 3.062ZM26.6613 11V6.996H29.2513L31.1413 11H32.6673L30.6093 6.73C31.8693 6.324 32.5693 5.316 32.5693 3.916C32.5693 2.026 31.2813 0.877999 29.1113 0.877999H25.2893V11H26.6613ZM26.6613 2.11H29.1113C30.3713 2.11 31.1273 2.754 31.1273 3.93C31.1273 5.092 30.3993 5.778 29.1253 5.778H26.6613V2.11ZM35.8214 11V3.174L41.0014 11H42.3734V0.877999H41.0014V8.704L35.8214 0.877999H34.4494V11H35.8214ZM49.9028 11V6.674C49.9028 5.26 49.8748 4.224 49.8048 3.734L52.7448 11H54.0328L56.9868 3.706C56.9168 4.42 56.9028 5.106 56.9028 6.996V11H58.2468V0.877999H56.8748L53.3888 9.39L49.9028 0.877999H48.5588V11H49.9028ZM69.7317 5.932C69.7317 2.852 67.7297 0.695999 64.8597 0.695999C62.0037 0.695999 60.0017 2.866 60.0017 5.932C60.0017 9.012 61.9897 11.168 64.8457 11.168C67.7157 11.168 69.7317 9.012 69.7317 5.932ZM68.2897 5.932C68.2897 8.27 66.9177 9.852 64.8597 9.852C62.8017 9.852 61.4437 8.284 61.4437 5.932C61.4437 3.58 62.8017 2.026 64.8597 2.026C66.9177 2.026 68.2897 3.58 68.2897 5.932ZM72.8585 11V6.996H75.4485L77.3385 11H78.8645L76.8065 6.73C78.0665 6.324 78.7665 5.316 78.7665 3.916C78.7665 2.026 77.4785 0.877999 75.3085 0.877999H71.4865V11H72.8585ZM72.8585 2.11H75.3085C76.5685 2.11 77.3245 2.754 77.3245 3.93C77.3245 5.092 76.5965 5.778 75.3225 5.778H72.8585V2.11ZM86.8207 11V9.726H82.0187V6.52H86.3447V5.302H82.0187V2.138H86.8207V0.877999H80.6467V11H86.8207Z" fill="url(#paint0_linear_537_4788)"/>
</g>
<defs>
<filter id="filter0_i_537_4788" x="0.542969" y="0.696045" width="86.2773" height="11.4719" filterUnits="userSpaceOnUse" color-interpolation-filters="sRGB">
<feFlood flood-opacity="0" result="BackgroundImageFix"/>
<feBlend mode="normal" in="SourceGraphic" in2="BackgroundImageFix" result="shape"/>
<feColorMatrix in="SourceAlpha" type="matrix" values="0 0 0 0 0 0 0 0 0 0 0 0 0 0 0 0 0 0 127 0" result="hardAlpha"/>
<feOffset dy="1"/>
<feGaussianBlur stdDeviation="1"/>
<feComposite in2="hardAlpha" operator="arithmetic" k2="-1" k3="1"/>
<feColorMatrix type="matrix" values="0 0 0 0 1 0 0 0 0 1 0 0 0 0 1 0 0 0 0.4 0"/>
<feBlend mode="normal" in2="shape" result="effect1_innerShadow_537_4788"/>
</filter>
<linearGradient id="paint0_linear_537_4788" x1="-24.9763" y1="-8.88889" x2="52.8964" y2="50.9691" gradientUnits="userSpaceOnUse">
<stop stop-color="#E30647"/>
<stop offset="1" stop-color="#FFAA0A"/>
</linearGradient>
</defs>
</svg>
