<svg width="145" height="12" viewBox="0 0 145 12" fill="none" xmlns="http://www.w3.org/2000/svg">
<g filter="url(#filter0_i_840_2060)">
<path d="M0.55832 8.186C0.55832 9.936 1.62232 11.168 3.55432 11.168C5.36032 11.168 6.57832 10.02 6.57832 8.2V0.877999H5.20632V8.144C5.20632 9.194 4.70232 9.894 3.55432 9.894C2.43432 9.894 1.88832 9.18 1.88832 8.186V7.682H0.55832V8.186ZM17.9925 5.932C17.9925 2.852 15.9905 0.695999 13.1205 0.695999C10.2645 0.695999 8.26248 2.866 8.26248 5.932C8.26248 9.012 10.2505 11.168 13.1065 11.168C15.9765 11.168 17.9925 9.012 17.9925 5.932ZM16.5505 5.932C16.5505 8.27 15.1785 9.852 13.1205 9.852C11.0625 9.852 9.70448 8.284 9.70448 5.932C9.70448 3.58 11.0625 2.026 13.1205 2.026C15.1785 2.026 16.5505 3.58 16.5505 5.932ZM21.1193 0.877999H19.7473V11H21.1193V0.877999ZM24.8517 11V3.174L30.0317 11H31.4037V0.877999H30.0317V8.704L24.8517 0.877999H23.4797V11H24.8517ZM36.6091 2.138H39.6611V11H41.0331V2.138H44.0711V0.877999H36.6091V2.138ZM46.8224 11V6.506H51.8344V11H53.2064V0.877999H51.8344V5.232H46.8224V0.877999H45.4504V11H46.8224ZM61.7279 11V9.726H56.9259V6.52H61.2519V5.302H56.9259V2.138H61.7279V0.877999H55.5539V11H61.7279ZM68.8882 11V6.674C68.8882 5.26 68.8602 4.224 68.7902 3.734L71.7302 11H73.0182L75.9722 3.706C75.9022 4.42 75.8882 5.106 75.8882 6.996V11H77.2322V0.877999H75.8602L72.3742 9.39L68.8882 0.877999H67.5442V11H68.8882ZM88.7171 5.932C88.7171 2.852 86.7151 0.695999 83.8451 0.695999C80.9891 0.695999 78.9871 2.866 78.9871 5.932C78.9871 9.012 80.9751 11.168 83.8311 11.168C86.7011 11.168 88.7171 9.012 88.7171 5.932ZM87.2751 5.932C87.2751 8.27 85.9031 9.852 83.8451 9.852C81.7871 9.852 80.4291 8.284 80.4291 5.932C80.4291 3.58 81.7871 2.026 83.8451 2.026C85.9031 2.026 87.2751 3.58 87.2751 5.932ZM92.8347 11H94.2627L98.0707 0.877999H96.6427L94.1927 7.332C94.0247 7.78 93.7867 8.452 93.5487 9.25C93.3387 8.494 93.1427 7.92 92.9187 7.346L90.4547 0.877999H88.9847L92.8347 11ZM105.56 11V9.726H100.758V6.52H105.084V5.302H100.758V2.138H105.56V0.877999H99.386V11H105.56ZM108.892 11V6.674C108.892 5.26 108.864 4.224 108.794 3.734L111.734 11H113.022L115.976 3.706C115.906 4.42 115.892 5.106 115.892 6.996V11H117.236V0.877999H115.864L112.378 9.39L108.892 0.877999H107.548V11H108.892ZM125.767 11V9.726H120.965V6.52H125.291V5.302H120.965V2.138H125.767V0.877999H119.593V11H125.767ZM129.127 11V3.174L134.307 11H135.679V0.877999H134.307V8.704L129.127 0.877999H127.755V11H129.127ZM137.056 2.138H140.108V11H141.48V2.138H144.518V0.877999H137.056V2.138Z" fill="url(#paint0_linear_840_2060)"/>
</g>
<defs>
<filter id="filter0_i_840_2060" x="0.55835" y="0.696045" width="143.96" height="11.4719" filterUnits="userSpaceOnUse" color-interpolation-filters="sRGB">
<feFlood flood-opacity="0" result="BackgroundImageFix"/>
<feBlend mode="normal" in="SourceGraphic" in2="BackgroundImageFix" result="shape"/>
<feColorMatrix in="SourceAlpha" type="matrix" values="0 0 0 0 0 0 0 0 0 0 0 0 0 0 0 0 0 0 127 0" result="hardAlpha"/>
<feOffset dy="1"/>
<feGaussianBlur stdDeviation="1"/>
<feComposite in2="hardAlpha" operator="arithmetic" k2="-1" k3="1"/>
<feColorMatrix type="matrix" values="0 0 0 0 1 0 0 0 0 1 0 0 0 0 1 0 0 0 0.4 0"/>
<feBlend mode="normal" in2="shape" result="effect1_innerShadow_840_2060"/>
</filter>
<linearGradient id="paint0_linear_840_2060" x1="-379.136" y1="-8.88889" x2="-348.536" y2="146.243" gradientUnits="userSpaceOnUse">
<stop stop-color="#E30647"/>
<stop offset="1" stop-color="#FFAA0A"/>
</linearGradient>
</defs>
</svg>
