<svg width="129" height="12" viewBox="0 0 129 12" fill="none" xmlns="http://www.w3.org/2000/svg">
<g filter="url(#filter0_i_630_13404)">
<path d="M4.11 7.388C6.084 7.388 7.372 6.016 7.372 4.126C7.372 2.18 6.098 0.877999 4.11 0.877999H0.176V11H1.548V7.388H4.11ZM3.872 2.11C5.16 2.11 5.93 2.838 5.93 4.112C5.93 5.358 5.174 6.156 3.816 6.156H1.548V2.11H3.872ZM18.054 5.932C18.054 2.852 16.052 0.695999 13.182 0.695999C10.326 0.695999 8.324 2.866 8.324 5.932C8.324 9.012 10.312 11.168 13.168 11.168C16.038 11.168 18.054 9.012 18.054 5.932ZM16.612 5.932C16.612 8.27 15.24 9.852 13.182 9.852C11.124 9.852 9.766 8.284 9.766 5.932C9.766 3.58 11.124 2.026 13.182 2.026C15.24 2.026 16.612 3.58 16.612 5.932ZM21.511 11H22.855L25.333 2.992L27.783 11H29.099L32.151 0.877999H30.751L28.889 7.08C28.749 7.528 28.609 8.046 28.441 8.9C28.287 8.144 28.147 7.612 27.979 7.066L26.075 0.877999H24.591L22.673 7.066C22.519 7.598 22.365 8.088 22.197 8.9C22.057 8.13 21.917 7.598 21.777 7.066L19.929 0.877999H18.501L21.511 11ZM39.7094 11V9.726H34.9074V6.52H39.2334V5.302H34.9074V2.138H39.7094V0.877999H33.5354V11H39.7094ZM43.0695 11V6.996H45.6595L47.5495 11H49.0755L47.0175 6.73C48.2775 6.324 48.9775 5.316 48.9775 3.916C48.9775 2.026 47.6895 0.877999 45.5195 0.877999H41.6975V11H43.0695ZM43.0695 2.11H45.5195C46.7795 2.11 47.5355 2.754 47.5355 3.93C47.5355 5.092 46.8075 5.778 45.5335 5.778H43.0695V2.11ZM57.0316 11V9.726H52.2296V6.52H56.5556V5.302H52.2296V2.138H57.0316V0.877999H50.8576V11H57.0316ZM62.3658 11C65.3618 11 67.3778 8.956 67.3778 5.946C67.3778 2.922 65.3338 0.877999 62.3098 0.877999H59.0198V11H62.3658ZM62.2118 2.138C64.5218 2.138 65.9498 3.594 65.9498 5.946C65.9498 8.27 64.5218 9.726 62.2678 9.726H60.3918V2.138H62.2118ZM72.9514 11H76.9554C78.9574 11 80.1754 9.978 80.1754 8.298C80.1754 7.094 79.6014 6.282 78.4814 5.918C79.4894 5.498 79.9934 4.714 79.9934 3.552C79.9934 1.886 78.7894 0.877999 76.8154 0.877999H72.9514V11ZM76.7314 2.096C77.9214 2.096 78.5934 2.67 78.5934 3.678C78.5934 4.728 77.9494 5.344 76.8154 5.344H74.3234V2.096H76.7314ZM76.9274 6.534C78.0894 6.534 78.7614 7.122 78.7614 8.13C78.7614 9.18 78.1034 9.782 76.9274 9.782H74.3234V6.534H76.9274ZM83.945 6.884V11H85.317V6.884L88.719 0.877999H87.221L84.981 4.924C84.799 5.26 84.771 5.344 84.645 5.596C84.533 5.358 84.449 5.162 84.309 4.924L82.055 0.877999H80.515L83.945 6.884ZM99.2174 6.702V5.456H95.2414V2.138H99.9734V0.877999H93.8694V11H95.2414V6.702H99.2174ZM110.763 5.932C110.763 2.852 108.761 0.695999 105.891 0.695999C103.035 0.695999 101.033 2.866 101.033 5.932C101.033 9.012 103.021 11.168 105.877 11.168C108.747 11.168 110.763 9.012 110.763 5.932ZM109.321 5.932C109.321 8.27 107.949 9.852 105.891 9.852C103.833 9.852 102.475 8.284 102.475 5.932C102.475 3.58 103.833 2.026 105.891 2.026C107.949 2.026 109.321 3.58 109.321 5.932ZM113.89 11V6.996H116.48L118.37 11H119.896L117.838 6.73C119.098 6.324 119.798 5.316 119.798 3.916C119.798 2.026 118.51 0.877999 116.34 0.877999H112.518V11H113.89ZM113.89 2.11H116.34C117.6 2.11 118.356 2.754 118.356 3.93C118.356 5.092 117.628 5.778 116.354 5.778H113.89V2.11ZM120.561 2.138H123.613V11H124.985V2.138H128.023V0.877999H120.561V2.138Z" fill="url(#paint0_linear_630_13404)"/>
</g>
<defs>
<filter id="filter0_i_630_13404" x="0.176025" y="0.696045" width="127.847" height="11.4719" filterUnits="userSpaceOnUse" color-interpolation-filters="sRGB">
<feFlood flood-opacity="0" result="BackgroundImageFix"/>
<feBlend mode="normal" in="SourceGraphic" in2="BackgroundImageFix" result="shape"/>
<feColorMatrix in="SourceAlpha" type="matrix" values="0 0 0 0 0 0 0 0 0 0 0 0 0 0 0 0 0 0 127 0" result="hardAlpha"/>
<feOffset dy="1"/>
<feGaussianBlur stdDeviation="1"/>
<feComposite in2="hardAlpha" operator="arithmetic" k2="-1" k3="1"/>
<feColorMatrix type="matrix" values="0 0 0 0 1 0 0 0 0 1 0 0 0 0 1 0 0 0 0.4 0"/>
<feBlend mode="normal" in2="shape" result="effect1_innerShadow_630_13404"/>
</filter>
<linearGradient id="paint0_linear_630_13404" x1="-159.136" y1="-8.88889" x2="-128.536" y2="146.243" gradientUnits="userSpaceOnUse">
<stop stop-color="#E30647"/>
<stop offset="1" stop-color="#FFAA0A"/>
</linearGradient>
</defs>
</svg>
