<svg width="125" height="12" viewBox="0 0 125 12" fill="none" xmlns="http://www.w3.org/2000/svg">
<g filter="url(#filter0_i_599_5840)">
<path d="M5.524 6.702V5.456H1.548V2.138H6.28V0.877999H0.176V11H1.548V6.702H5.524ZM17.0696 5.932C17.0696 2.852 15.0676 0.695999 12.1976 0.695999C9.34163 0.695999 7.33963 2.866 7.33963 5.932C7.33963 9.012 9.32763 11.168 12.1836 11.168C15.0536 11.168 17.0696 9.012 17.0696 5.932ZM15.6276 5.932C15.6276 8.27 14.2556 9.852 12.1976 9.852C10.1396 9.852 8.78163 8.284 8.78163 5.932C8.78163 3.58 10.1396 2.026 12.1976 2.026C14.2556 2.026 15.6276 3.58 15.6276 5.932ZM20.1964 11V6.996H22.7864L24.6764 11H26.2024L24.1444 6.73C25.4044 6.324 26.1044 5.316 26.1044 3.916C26.1044 2.026 24.8164 0.877999 22.6464 0.877999H18.8244V11H20.1964ZM20.1964 2.11H22.6464C23.9064 2.11 24.6624 2.754 24.6624 3.93C24.6624 5.092 23.9344 5.778 22.6604 5.778H20.1964V2.11ZM26.8679 2.138H29.9199V11H31.2919V2.138H34.3299V0.877999H26.8679V2.138ZM37.0812 0.877999H35.7092V11H37.0812V0.877999ZM38.8536 3.608C38.8536 5.064 39.7076 6.016 41.3596 6.394L43.0256 6.772C43.9916 6.996 44.4256 7.5 44.4256 8.298C44.4256 9.306 43.5716 9.936 42.2276 9.936C40.9536 9.936 40.1416 9.32 40.1136 8.354H38.7136C38.7976 10.09 40.1696 11.168 42.2276 11.168C44.3836 11.168 45.7976 10.006 45.7976 8.186C45.7976 6.758 44.9576 5.862 43.3056 5.484L41.6396 5.092C40.6876 4.868 40.2256 4.378 40.2256 3.566C40.2256 2.572 41.0516 1.928 42.3256 1.928C43.4596 1.928 44.1736 2.516 44.2436 3.524H45.6296C45.5176 1.774 44.2716 0.695999 42.3396 0.695999C40.2536 0.695999 38.8536 1.872 38.8536 3.608ZM55.2838 7.388C57.2578 7.388 58.5458 6.016 58.5458 4.126C58.5458 2.18 57.2718 0.877999 55.2838 0.877999H51.3498V11H52.7218V7.388H55.2838ZM55.0458 2.11C56.3338 2.11 57.1038 2.838 57.1038 4.112C57.1038 5.358 56.3478 6.156 54.9898 6.156H52.7218V2.11H55.0458ZM61.4718 11V6.996H64.0618L65.9518 11H67.4778L65.4198 6.73C66.6798 6.324 67.3798 5.316 67.3798 3.916C67.3798 2.026 66.0918 0.877999 63.9218 0.877999H60.0998V11H61.4718ZM61.4718 2.11H63.9218C65.1818 2.11 65.9378 2.754 65.9378 3.93C65.9378 5.092 65.2098 5.778 63.9358 5.778H61.4718V2.11ZM78.347 5.932C78.347 2.852 76.345 0.695999 73.475 0.695999C70.619 0.695999 68.617 2.866 68.617 5.932C68.617 9.012 70.605 11.168 73.461 11.168C76.331 11.168 78.347 9.012 78.347 5.932ZM76.905 5.932C76.905 8.27 75.533 9.852 73.475 9.852C71.417 9.852 70.059 8.284 70.059 5.932C70.059 3.58 71.417 2.026 73.475 2.026C75.533 2.026 76.905 3.58 76.905 5.932ZM83.4478 11C86.4438 11 88.4598 8.956 88.4598 5.946C88.4598 2.922 86.4158 0.877999 83.3918 0.877999H80.1018V11H83.4478ZM83.2938 2.138C85.6038 2.138 87.0318 3.594 87.0318 5.946C87.0318 8.27 85.6038 9.726 83.3498 9.726H81.4738V2.138H83.2938ZM90.1353 7.402C90.1353 9.74 91.6193 11.168 94.0133 11.168C96.3933 11.168 97.8773 9.726 97.8773 7.402V0.877999H96.4913V7.318C96.4913 8.928 95.6093 9.838 94.0133 9.838C92.4033 9.838 91.5073 8.942 91.5073 7.318V0.877999H90.1353V7.402ZM104.358 11.154C106.64 11.154 108.446 9.81 108.88 7.794H107.424C107.046 9.04 105.87 9.838 104.386 9.838C102.342 9.838 100.998 8.298 100.998 5.932C100.998 3.566 102.342 2.026 104.386 2.026C105.856 2.026 106.99 2.824 107.368 4.14H108.838C108.46 2.068 106.71 0.71 104.428 0.71C101.53 0.71 99.5564 2.824 99.5564 5.946C99.5564 9.082 101.474 11.154 104.358 11.154ZM109.022 2.138H112.074V11H113.446V2.138H116.484V0.877999H109.022V2.138ZM117.276 3.608C117.276 5.064 118.13 6.016 119.782 6.394L121.448 6.772C122.414 6.996 122.848 7.5 122.848 8.298C122.848 9.306 121.994 9.936 120.65 9.936C119.376 9.936 118.564 9.32 118.535 8.354H117.136C117.22 10.09 118.592 11.168 120.65 11.168C122.806 11.168 124.22 10.006 124.22 8.186C124.22 6.758 123.38 5.862 121.728 5.484L120.062 5.092C119.11 4.868 118.648 4.378 118.648 3.566C118.648 2.572 119.474 1.928 120.748 1.928C121.882 1.928 122.596 2.516 122.666 3.524H124.052C123.94 1.774 122.694 0.695999 120.762 0.695999C118.676 0.695999 117.276 1.872 117.276 3.608Z" fill="url(#paint0_linear_599_5840)"/>
</g>
<defs>
<filter id="filter0_i_599_5840" x="0.175781" y="0.696045" width="124.043" height="11.4719" filterUnits="userSpaceOnUse" color-interpolation-filters="sRGB">
<feFlood flood-opacity="0" result="BackgroundImageFix"/>
<feBlend mode="normal" in="SourceGraphic" in2="BackgroundImageFix" result="shape"/>
<feColorMatrix in="SourceAlpha" type="matrix" values="0 0 0 0 0 0 0 0 0 0 0 0 0 0 0 0 0 0 127 0" result="hardAlpha"/>
<feOffset dy="1"/>
<feGaussianBlur stdDeviation="1"/>
<feComposite in2="hardAlpha" operator="arithmetic" k2="-1" k3="1"/>
<feColorMatrix type="matrix" values="0 0 0 0 1 0 0 0 0 1 0 0 0 0 1 0 0 0 0.4 0"/>
<feBlend mode="normal" in2="shape" result="effect1_innerShadow_599_5840"/>
</filter>
<linearGradient id="paint0_linear_599_5840" x1="-159.136" y1="-8.88889" x2="-128.536" y2="146.243" gradientUnits="userSpaceOnUse">
<stop stop-color="#E30647"/>
<stop offset="1" stop-color="#FFAA0A"/>
</linearGradient>
</defs>
</svg>
