<svg width="106" height="11" viewBox="0 0 106 11" fill="none" xmlns="http://www.w3.org/2000/svg">
<g filter="url(#filter0_i_537_4725)">
<path d="M1.52 11V6.674C1.52 5.26 1.492 4.224 1.422 3.734L4.362 11H5.65L8.604 3.706C8.534 4.42 8.52 5.106 8.52 6.996V11H9.864V0.877999H8.492L5.006 9.39L1.52 0.877999H0.176V11H1.52ZM18.3949 11V9.726H13.5929V6.52H17.9189V5.302H13.5929V2.138H18.3949V0.877999H12.2209V11H18.3949ZM26.557 11V9.726H21.755V6.52H26.081V5.302H21.755V2.138H26.557V0.877999H20.383V11H26.557ZM27.5651 2.138H30.6171V11H31.9891V2.138H35.0271V0.877999H27.5651V2.138ZM39.2546 2.138H42.3066V11H43.6786V2.138H46.7166V0.877999H39.2546V2.138ZM49.4679 11V6.506H54.4799V11H55.8519V0.877999H54.4799V5.232H49.4679V0.877999H48.0959V11H49.4679ZM64.3734 11V9.726H59.5714V6.52H63.8974V5.302H59.5714V2.138H64.3734V0.877999H58.1994V11H64.3734ZM69.2097 2.138H72.2617V11H73.6337V2.138H76.6717V0.877999H69.2097V2.138ZM84.225 11V9.726H79.423V6.52H83.749V5.302H79.423V2.138H84.225V0.877999H78.051V11H84.225ZM86.6331 11L87.5291 8.48H91.7851L92.6951 11H94.1371L90.4271 0.877999H88.9011L85.2051 11H86.6331ZM89.4891 3.062C89.5591 2.852 89.6291 2.614 89.6571 2.474C89.6851 2.628 89.7551 2.866 89.8251 3.062L91.3791 7.29H87.9491L89.4891 3.062ZM96.8266 11V6.674C96.8266 5.26 96.7986 4.224 96.7286 3.734L99.6686 11H100.957L103.911 3.706C103.841 4.42 103.827 5.106 103.827 6.996V11H105.171V0.877999H103.799L100.313 9.39L96.8266 0.877999H95.4826V11H96.8266Z" fill="url(#paint0_linear_537_4725)"/>
</g>
<defs>
<filter id="filter0_i_537_4725" x="0.175781" y="0.87793" width="104.994" height="11.1221" filterUnits="userSpaceOnUse" color-interpolation-filters="sRGB">
<feFlood flood-opacity="0" result="BackgroundImageFix"/>
<feBlend mode="normal" in="SourceGraphic" in2="BackgroundImageFix" result="shape"/>
<feColorMatrix in="SourceAlpha" type="matrix" values="0 0 0 0 0 0 0 0 0 0 0 0 0 0 0 0 0 0 127 0" result="hardAlpha"/>
<feOffset dy="1"/>
<feGaussianBlur stdDeviation="1"/>
<feComposite in2="hardAlpha" operator="arithmetic" k2="-1" k3="1"/>
<feColorMatrix type="matrix" values="0 0 0 0 1 0 0 0 0 1 0 0 0 0 1 0 0 0 0.4 0"/>
<feBlend mode="normal" in2="shape" result="effect1_innerShadow_537_4725"/>
</filter>
<linearGradient id="paint0_linear_537_4725" x1="-30.0948" y1="-8.88889" x2="50.2939" y2="66.0947" gradientUnits="userSpaceOnUse">
<stop stop-color="#E30647"/>
<stop offset="1" stop-color="#FFAA0A"/>
</linearGradient>
</defs>
</svg>
