<svg width="45" height="12" viewBox="0 0 45 12" fill="none" xmlns="http://www.w3.org/2000/svg">
<g filter="url(#filter0_i_630_13679)">
<path d="M0.106 7.402C0.106 9.74 1.59 11.168 3.984 11.168C6.364 11.168 7.848 9.726 7.848 7.402V0.877999H6.462V7.318C6.462 8.928 5.58 9.838 3.984 9.838C2.374 9.838 1.478 8.942 1.478 7.318V0.877999H0.106V7.402ZM9.54113 3.608C9.54113 5.064 10.3951 6.016 12.0471 6.394L13.7131 6.772C14.6791 6.996 15.1131 7.5 15.1131 8.298C15.1131 9.306 14.2591 9.936 12.9151 9.936C11.6411 9.936 10.8291 9.32 10.8011 8.354H9.40113C9.48513 10.09 10.8571 11.168 12.9151 11.168C15.0711 11.168 16.4851 10.006 16.4851 8.186C16.4851 6.758 15.6451 5.862 13.9931 5.484L12.3271 5.092C11.3751 4.868 10.9131 4.378 10.9131 3.566C10.9131 2.572 11.7391 1.928 13.0131 1.928C14.1471 1.928 14.8611 2.516 14.9311 3.524H16.3171C16.2051 1.774 14.9591 0.695999 13.0271 0.695999C10.9411 0.695999 9.54113 1.872 9.54113 3.608ZM18.6292 11L19.5252 8.48H23.7812L24.6912 11H26.1332L22.4232 0.877999H20.8972L17.2012 11H18.6292ZM21.4852 3.062C21.5552 2.852 21.6252 2.614 21.6532 2.474C21.6812 2.628 21.7512 2.866 21.8212 3.062L23.3752 7.29H19.9452L21.4852 3.062ZM31.3676 1.998C32.7116 1.998 33.8316 2.642 34.2096 3.93H35.6656C35.3296 1.984 33.6076 0.71 31.3956 0.71C28.4136 0.71 26.4256 2.894 26.4256 5.974C26.4256 9.096 28.3996 11.168 31.2696 11.168C32.7536 11.168 33.9856 10.524 34.5316 9.642L34.6296 11.014H35.7776V5.428H31.1016V6.646H34.4896V6.94C34.4896 8.984 33.1036 9.866 31.3816 9.866C29.2956 9.866 27.8676 8.452 27.8676 6.002C27.8676 3.608 29.1836 1.998 31.3676 1.998ZM44.3305 11V9.726H39.5285V6.52H43.8545V5.302H39.5285V2.138H44.3305V0.877999H38.1565V11H44.3305Z" fill="url(#paint0_linear_630_13679)"/>
</g>
<defs>
<filter id="filter0_i_630_13679" x="0.105957" y="0.695984" width="44.2246" height="11.472" filterUnits="userSpaceOnUse" color-interpolation-filters="sRGB">
<feFlood flood-opacity="0" result="BackgroundImageFix"/>
<feBlend mode="normal" in="SourceGraphic" in2="BackgroundImageFix" result="shape"/>
<feColorMatrix in="SourceAlpha" type="matrix" values="0 0 0 0 0 0 0 0 0 0 0 0 0 0 0 0 0 0 127 0" result="hardAlpha"/>
<feOffset dy="1"/>
<feGaussianBlur stdDeviation="1"/>
<feComposite in2="hardAlpha" operator="arithmetic" k2="-1" k3="1"/>
<feColorMatrix type="matrix" values="0 0 0 0 1 0 0 0 0 1 0 0 0 0 1 0 0 0 0.4 0"/>
<feBlend mode="normal" in2="shape" result="effect1_innerShadow_630_13679"/>
</filter>
<linearGradient id="paint0_linear_630_13679" x1="-159.136" y1="-8.88889" x2="-128.536" y2="146.243" gradientUnits="userSpaceOnUse">
<stop stop-color="#E30647"/>
<stop offset="1" stop-color="#FFAA0A"/>
</linearGradient>
</defs>
</svg>
