<svg width="88" height="12" viewBox="0 0 88 12" fill="none" xmlns="http://www.w3.org/2000/svg">
<g filter="url(#filter0_i_630_13573)">
<path d="M5.7613 6.702V5.456H1.7853V2.138H6.51731V0.877999H0.413305V11H1.7853V6.702H5.7613ZM17.3069 5.932C17.3069 2.852 15.3049 0.695999 12.4349 0.695999C9.57893 0.695999 7.57693 2.866 7.57693 5.932C7.57693 9.012 9.56493 11.168 12.4209 11.168C15.2909 11.168 17.3069 9.012 17.3069 5.932ZM15.8649 5.932C15.8649 8.27 14.4929 9.852 12.4349 9.852C10.3769 9.852 9.01893 8.284 9.01893 5.932C9.01893 3.58 10.3769 2.026 12.4349 2.026C14.4929 2.026 15.8649 3.58 15.8649 5.932ZM20.4337 11V6.996H23.0237L24.9137 11H26.4397L24.3817 6.73C25.6417 6.324 26.3417 5.316 26.3417 3.916C26.3417 2.026 25.0537 0.877999 22.8837 0.877999H19.0617V11H20.4337ZM20.4337 2.11H22.8837C24.1437 2.11 24.8997 2.754 24.8997 3.93C24.8997 5.092 24.1717 5.778 22.8977 5.778H20.4337V2.11ZM27.1052 2.138H30.1572V11H31.5292V2.138H34.5672V0.877999H27.1052V2.138ZM39.7046 7.402C39.7046 9.74 41.1886 11.168 43.5826 11.168C45.9626 11.168 47.4466 9.726 47.4466 7.402V0.877999H46.0606V7.318C46.0606 8.928 45.1786 9.838 43.5826 9.838C41.9726 9.838 41.0766 8.942 41.0766 7.318V0.877999H39.7046V7.402ZM48.7478 2.138H51.7998V11H53.1718V2.138H56.2098V0.877999H48.7478V2.138ZM58.9611 0.877999H57.5891V11H58.9611V0.877999ZM62.6935 0.877999H61.3215V11H67.1455V9.726H62.6935V0.877999ZM70.008 0.877999H68.636V11H70.008V0.877999ZM71.3884 2.138H74.4404V11H75.8124V2.138H78.8504V0.877999H71.3884V2.138ZM82.8425 6.884V11H84.2145V6.884L87.6165 0.877999H86.1185L83.8785 4.924C83.6965 5.26 83.6685 5.344 83.5425 5.596C83.4305 5.358 83.3465 5.162 83.2065 4.924L80.9525 0.877999H79.4125L82.8425 6.884Z" fill="url(#paint0_linear_630_13573)"/>
</g>
<defs>
<filter id="filter0_i_630_13573" x="0.41333" y="0.696045" width="87.2031" height="11.4719" filterUnits="userSpaceOnUse" color-interpolation-filters="sRGB">
<feFlood flood-opacity="0" result="BackgroundImageFix"/>
<feBlend mode="normal" in="SourceGraphic" in2="BackgroundImageFix" result="shape"/>
<feColorMatrix in="SourceAlpha" type="matrix" values="0 0 0 0 0 0 0 0 0 0 0 0 0 0 0 0 0 0 127 0" result="hardAlpha"/>
<feOffset dy="1"/>
<feGaussianBlur stdDeviation="1"/>
<feComposite in2="hardAlpha" operator="arithmetic" k2="-1" k3="1"/>
<feColorMatrix type="matrix" values="0 0 0 0 1 0 0 0 0 1 0 0 0 0 1 0 0 0 0.4 0"/>
<feBlend mode="normal" in2="shape" result="effect1_innerShadow_630_13573"/>
</filter>
<linearGradient id="paint0_linear_630_13573" x1="-24.9763" y1="-8.88889" x2="52.8964" y2="50.9691" gradientUnits="userSpaceOnUse">
<stop stop-color="#E30647"/>
<stop offset="1" stop-color="#FFAA0A"/>
</linearGradient>
</defs>
</svg>
