<svg width="115" height="12" viewBox="0 0 115 12" fill="none" xmlns="http://www.w3.org/2000/svg">
<g filter="url(#filter0_i_537_4188)">
<path d="M3.21902 11H4.56302L7.04102 2.992L9.49102 11H10.807L13.859 0.877999H12.459L10.597 7.08C10.457 7.528 10.317 8.046 10.149 8.9C9.99502 8.144 9.85502 7.612 9.68702 7.066L7.78302 0.877999H6.29902L4.38102 7.066C4.22702 7.598 4.07302 8.088 3.90502 8.9C3.76502 8.13 3.62502 7.598 3.48502 7.066L1.63702 0.877999H0.209023L3.21902 11ZM16.6154 11V6.506H21.6274V11H22.9994V0.877999H21.6274V5.232H16.6154V0.877999H15.2434V11H16.6154ZM25.7669 11L26.6629 8.48H30.9189L31.8289 11H33.2709L29.5609 0.877999H28.0349L24.3389 11H25.7669ZM28.6229 3.062C28.6929 2.852 28.7629 2.614 28.7909 2.474C28.8189 2.628 28.8889 2.866 28.9589 3.062L30.5129 7.29H27.0829L28.6229 3.062ZM32.7204 2.138H35.7724V11H37.1444V2.138H40.1824V0.877999H32.7204V2.138ZM46.7619 0.877999H45.3899V11H46.7619V0.877999ZM48.5343 3.608C48.5343 5.064 49.3883 6.016 51.0403 6.394L52.7063 6.772C53.6723 6.996 54.1063 7.5 54.1063 8.298C54.1063 9.306 53.2523 9.936 51.9083 9.936C50.6343 9.936 49.8223 9.32 49.7943 8.354H48.3943C48.4783 10.09 49.8503 11.168 51.9083 11.168C54.0643 11.168 55.4783 10.006 55.4783 8.186C55.4783 6.758 54.6383 5.862 52.9863 5.484L51.3203 5.092C50.3683 4.868 49.9063 4.378 49.9063 3.566C49.9063 2.572 50.7323 1.928 52.0063 1.928C53.1403 1.928 53.8543 2.516 53.9243 3.524H55.3103C55.1983 1.774 53.9523 0.695999 52.0203 0.695999C49.9343 0.695999 48.5343 1.872 48.5343 3.608ZM66.3785 6.702V5.456H62.4025V2.138H67.1345V0.877999H61.0305V11H62.4025V6.702H66.3785ZM77.9241 5.932C77.9241 2.852 75.9221 0.695999 73.0521 0.695999C70.1961 0.695999 68.1941 2.866 68.1941 5.932C68.1941 9.012 70.1821 11.168 73.0381 11.168C75.9081 11.168 77.9241 9.012 77.9241 5.932ZM76.4821 5.932C76.4821 8.27 75.1101 9.852 73.0521 9.852C70.9941 9.852 69.6361 8.284 69.6361 5.932C69.6361 3.58 70.9941 2.026 73.0521 2.026C75.1101 2.026 76.4821 3.58 76.4821 5.932ZM81.0509 11V6.996H83.6409L85.5309 11H87.0569L84.9989 6.73C86.2589 6.324 86.9589 5.316 86.9589 3.916C86.9589 2.026 85.6709 0.877999 83.5009 0.877999H79.6789V11H81.0509ZM81.0509 2.11H83.5009C84.7609 2.11 85.5169 2.754 85.5169 3.93C85.5169 5.092 84.7889 5.778 83.5149 5.778H81.0509V2.11ZM87.7224 2.138H90.7744V11H92.1464V2.138H95.1844V0.877999H87.7224V2.138ZM97.9357 0.877999H96.5637V11H97.9357V0.877999ZM99.7081 3.608C99.7081 5.064 100.562 6.016 102.214 6.394L103.88 6.772C104.846 6.996 105.28 7.5 105.28 8.298C105.28 9.306 104.426 9.936 103.082 9.936C101.808 9.936 100.996 9.32 100.968 8.354H99.5681C99.6521 10.09 101.024 11.168 103.082 11.168C105.238 11.168 106.652 10.006 106.652 8.186C106.652 6.758 105.812 5.862 104.16 5.484L102.494 5.092C101.542 4.868 101.08 4.378 101.08 3.566C101.08 2.572 101.906 1.928 103.18 1.928C104.314 1.928 105.028 2.516 105.098 3.524H106.484C106.372 1.774 105.126 0.695999 103.194 0.695999C101.108 0.695999 99.7081 1.872 99.7081 3.608ZM111.19 8.55V8.2C111.19 7.486 111.694 7.038 112.436 6.506C113.248 5.918 114.2 5.204 114.2 3.734C114.2 1.956 112.968 0.695999 110.98 0.695999C109.09 0.695999 107.662 2.082 107.662 3.944H109.02C109.02 2.796 109.846 1.928 110.952 1.928C112.1 1.928 112.814 2.726 112.814 3.804C112.814 4.728 112.184 5.246 111.498 5.778C110.742 6.366 109.972 7.01 109.972 8.2V8.55H111.19ZM110.644 11.196C111.176 11.196 111.638 10.734 111.638 10.202C111.638 9.67 111.176 9.208 110.644 9.208C110.084 9.208 109.636 9.656 109.636 10.202C109.636 10.748 110.084 11.196 110.644 11.196Z" fill="url(#paint0_linear_537_4188)"/>
</g>
<defs>
<filter id="filter0_i_537_4188" x="0.208984" y="0.695984" width="113.991" height="11.5" filterUnits="userSpaceOnUse" color-interpolation-filters="sRGB">
<feFlood flood-opacity="0" result="BackgroundImageFix"/>
<feBlend mode="normal" in="SourceGraphic" in2="BackgroundImageFix" result="shape"/>
<feColorMatrix in="SourceAlpha" type="matrix" values="0 0 0 0 0 0 0 0 0 0 0 0 0 0 0 0 0 0 127 0" result="hardAlpha"/>
<feOffset dy="1"/>
<feGaussianBlur stdDeviation="1"/>
<feComposite in2="hardAlpha" operator="arithmetic" k2="-1" k3="1"/>
<feColorMatrix type="matrix" values="0 0 0 0 1 0 0 0 0 1 0 0 0 0 1 0 0 0 0.4 0"/>
<feBlend mode="normal" in2="shape" result="effect1_innerShadow_537_4188"/>
</filter>
<linearGradient id="paint0_linear_537_4188" x1="-30.9816" y1="-8.88889" x2="49.6001" y2="71.1464" gradientUnits="userSpaceOnUse">
<stop stop-color="#E30647"/>
<stop offset="1" stop-color="#FFAA0A"/>
</linearGradient>
</defs>
</svg>
